<?xml version="1.0" encoding="UTF-8" standalone="no"?>
<!-- Created with Inkscape (http://www.inkscape.org/) -->

<svg
   width="256mm"
   height="192mm"
   viewBox="0 0 255.99999 191.99999"
   version="1.1"
   id="svg1"
   inkscape:version="1.3.2 (091e20ef0f, 2023-11-25)"
   sodipodi:docname="test.svg"
   xmlns:inkscape="http://www.inkscape.org/namespaces/inkscape"
   xmlns:sodipodi="http://sodipodi.sourceforge.net/DTD/sodipodi-0.dtd"
   xmlns="http://www.w3.org/2000/svg"
   xmlns:svg="http://www.w3.org/2000/svg">
  <sodipodi:namedview
     id="namedview1"
     pagecolor="#ffffff"
     bordercolor="#ffffff"
     borderopacity="1"
     inkscape:showpageshadow="0"
     inkscape:pageopacity="0"
     inkscape:pagecheckerboard="false"
     inkscape:deskcolor="#d1d1d1"
     inkscape:document-units="mm"
     showborder="true"
     inkscape:zoom="1.1941306"
     inkscape:cx="301.89328"
     inkscape:cy="168.3233"
     inkscape:window-width="1920"
     inkscape:window-height="1052"
     inkscape:window-x="0"
     inkscape:window-y="0"
     inkscape:window-maximized="1"
     inkscape:current-layer="layer1" />
  <defs
     id="defs1">
    <inkscape:path-effect
       effect="bspline"
       id="path-effect22"
       is_visible="true"
       lpeversion="1.3"
       weight="33.333333"
       steps="2"
       helper_size="0"
       apply_no_weight="true"
       apply_with_weight="true"
       only_selected="false"
       uniform="false" />
    <inkscape:path-effect
       effect="bspline"
       id="path-effect21"
       is_visible="true"
       lpeversion="1.3"
       weight="33.333333"
       steps="2"
       helper_size="0"
       apply_no_weight="true"
       apply_with_weight="true"
       only_selected="false"
       uniform="false" />
    <inkscape:path-effect
       effect="bspline"
       id="path-effect20"
       is_visible="true"
       lpeversion="1.3"
       weight="33.333333"
       steps="2"
       helper_size="0"
       apply_no_weight="true"
       apply_with_weight="true"
       only_selected="false"
       uniform="false" />
    <inkscape:path-effect
       effect="bspline"
       id="path-effect5"
       is_visible="true"
       lpeversion="1.3"
       weight="33.333333"
       steps="2"
       helper_size="0"
       apply_no_weight="true"
       apply_with_weight="true"
       only_selected="false"
       uniform="false" />
    <inkscape:path-effect
       effect="skeletal"
       id="path-effect19"
       is_visible="true"
       lpeversion="1"
       pattern="M 0,4.992138 C 0,2.2364778 2.2364778,0 4.992138,0 c 2.7556602,0 4.9921381,2.2364778 4.9921381,4.992138 0,2.7556602 -2.2364779,4.9921381 -4.9921381,4.9921381 C 2.2364778,9.9842761 0,7.7477982 0,4.992138 Z"
       copytype="single_stretched"
       prop_scale="1"
       scale_y_rel="false"
       spacing="0"
       normal_offset="0"
       tang_offset="0"
       prop_units="false"
       vertical_pattern="false"
       hide_knot="false"
       fuse_tolerance="0" />
    <inkscape:path-effect
       effect="bspline"
       id="path-effect18"
       is_visible="true"
       lpeversion="1.3"
       weight="33.333333"
       steps="2"
       helper_size="0"
       apply_no_weight="true"
       apply_with_weight="true"
       only_selected="false"
       uniform="false" />
    <inkscape:path-effect
       effect="bspline"
       id="path-effect17"
       is_visible="true"
       lpeversion="1.3"
       weight="33.333333"
       steps="2"
       helper_size="0"
       apply_no_weight="true"
       apply_with_weight="true"
       only_selected="false"
       uniform="false" />
    <inkscape:path-effect
       effect="bspline"
       id="path-effect16"
       is_visible="true"
       lpeversion="1.3"
       weight="33.333333"
       steps="2"
       helper_size="0"
       apply_no_weight="true"
       apply_with_weight="true"
       only_selected="false"
       uniform="false" />
    <inkscape:path-effect
       effect="bspline"
       id="path-effect15"
       is_visible="true"
       lpeversion="1.3"
       weight="33.333333"
       steps="2"
       helper_size="0"
       apply_no_weight="true"
       apply_with_weight="true"
       only_selected="false"
       uniform="false" />
    <inkscape:path-effect
       effect="bspline"
       id="path-effect14"
       is_visible="true"
       lpeversion="1.3"
       weight="33.333333"
       steps="2"
       helper_size="0"
       apply_no_weight="true"
       apply_with_weight="true"
       only_selected="false"
       uniform="false" />
    <inkscape:path-effect
       effect="bspline"
       id="path-effect13"
       is_visible="true"
       lpeversion="1.3"
       weight="33.333333"
       steps="2"
       helper_size="0"
       apply_no_weight="true"
       apply_with_weight="true"
       only_selected="false"
       uniform="false" />
    <inkscape:path-effect
       effect="bspline"
       id="path-effect12"
       is_visible="true"
       lpeversion="1.3"
       weight="33.333333"
       steps="2"
       helper_size="0"
       apply_no_weight="true"
       apply_with_weight="true"
       only_selected="false"
       uniform="false" />
    <inkscape:path-effect
       effect="bspline"
       id="path-effect11"
       is_visible="true"
       lpeversion="1.3"
       weight="33.333333"
       steps="2"
       helper_size="0"
       apply_no_weight="true"
       apply_with_weight="true"
       only_selected="false"
       uniform="false" />
    <inkscape:path-effect
       effect="bspline"
       id="path-effect10"
       is_visible="true"
       lpeversion="1.3"
       weight="33.333333"
       steps="2"
       helper_size="0"
       apply_no_weight="true"
       apply_with_weight="true"
       only_selected="false"
       uniform="false" />
    <inkscape:path-effect
       effect="bspline"
       id="path-effect9"
       is_visible="true"
       lpeversion="1.3"
       weight="33.333333"
       steps="2"
       helper_size="0"
       apply_no_weight="true"
       apply_with_weight="true"
       only_selected="false"
       uniform="false" />
    <inkscape:path-effect
       effect="bspline"
       id="path-effect8"
       is_visible="true"
       lpeversion="1.3"
       weight="33.333333"
       steps="2"
       helper_size="0"
       apply_no_weight="true"
       apply_with_weight="true"
       only_selected="false"
       uniform="false" />
    <inkscape:path-effect
       effect="bspline"
       id="path-effect7"
       is_visible="true"
       lpeversion="1.3"
       weight="33.333333"
       steps="2"
       helper_size="0"
       apply_no_weight="true"
       apply_with_weight="true"
       only_selected="false"
       uniform="false" />
    <inkscape:path-effect
       effect="bspline"
       id="path-effect6"
       is_visible="true"
       lpeversion="1.3"
       weight="33.333333"
       steps="2"
       helper_size="0"
       apply_no_weight="true"
       apply_with_weight="true"
       only_selected="false"
       uniform="false" />
    <inkscape:path-effect
       effect="bspline"
       id="path-effect4"
       is_visible="true"
       lpeversion="1.3"
       weight="33.333333"
       steps="2"
       helper_size="0"
       apply_no_weight="true"
       apply_with_weight="true"
       only_selected="false"
       uniform="false" />
    <inkscape:path-effect
       effect="bspline"
       id="path-effect3"
       is_visible="true"
       lpeversion="1.3"
       weight="33.333333"
       steps="2"
       helper_size="0"
       apply_no_weight="true"
       apply_with_weight="true"
       only_selected="false"
       uniform="false" />
    <inkscape:path-effect
       effect="bspline"
       id="path-effect2"
       is_visible="true"
       lpeversion="1.3"
       weight="33.333333"
       steps="2"
       helper_size="0"
       apply_no_weight="true"
       apply_with_weight="true"
       only_selected="false"
       uniform="false" />
    <inkscape:path-effect
       effect="bspline"
       id="path-effect1"
       is_visible="true"
       lpeversion="1.3"
       weight="33.333333"
       steps="2"
       helper_size="0"
       apply_no_weight="true"
       apply_with_weight="true"
       only_selected="false"
       uniform="false" />
  </defs>
  <g
     inkscape:label="Calque 1"
     inkscape:groupmode="layer"
     id="layer1">
    <path
       style="fill:none;stroke:#000000;stroke-width:0.264583px;stroke-linecap:butt;stroke-linejoin:miter;stroke-opacity:1"
       d="m 72.577512,79.341058 c -0.262588,0.46083 -0.623147,0.878293 -0.787768,1.382493 -0.401796,1.230638 -0.754277,5.235025 -0.807455,6.079424 -0.211886,3.364325 -0.277503,11.514312 -0.295415,13.913555 -0.0425,5.6921 0.0476,12.58848 0.09847,18.07877 0.03783,4.0825 0.08201,8.16495 0.118162,12.24747 0.08311,9.38695 0.0078,2.35119 0.05909,8.02909 0.0057,0.62627 0.01376,1.25251 0.01971,1.87877 5.29e-4,0.065 0,0.12998 0,0.19497 0,0.0414 0,0.0827 0,0.12407 0,0.0295 0.0036,0.0593 0,0.0886 -0.003,0.0243 0.0027,0.0608 -0.01971,0.0709 -0.02096,0.009 -0.04348,-0.0186 -0.05909,-0.0354 -0.01836,-0.0199 -0.0255,-0.0477 -0.03939,-0.0709 -0.03208,-0.0536 -0.06639,-0.10589 -0.09847,-0.15951 -0.01677,-0.028 -0.05223,-0.0871 -0.05908,-0.12408 -0.0032,-0.0174 -0.01664,-0.0593 0,-0.0532 0.216353,0.0791 0.436891,0.15832 0.630211,0.28359 2.47922,1.60649 2.859572,1.91263 4.923547,3.793 8.040404,7.32514 -3.779205,-3.20729 6.400606,5.86673 0.821907,0.73263 1.673265,1.43237 2.481472,2.18008 0.352877,0.32647 4.822534,4.6592 5.553763,5.31728 1.086723,0.97803 2.596517,2.23132 3.840363,3.13721 0.634175,0.46187 1.283751,0.90226 1.930027,1.34704 0.891405,0.61348 1.176012,0.7672 2.028505,1.3825 0.352171,0.25418 0.693695,0.52283 1.043789,0.77986 0.148868,0.1093 0.304694,0.20894 0.452972,0.31904 0.114419,0.0849 0.224699,0.1754 0.334799,0.26587 0.0409,0.0336 0.0727,0.0791 0.11817,0.10634 0.0717,0.043 0.12278,0.0354 0.19694,0.0354 0.0197,0 0.0395,-0.002 0.0591,0 0.0527,0.004 0.10536,0.009 0.15756,0.0177 0.0595,0.009 0.11794,0.0248 0.17724,0.0354 0.072,0.013 0.14562,0.0178 0.21664,0.0354 0.11973,0.0297 0.23501,0.0756 0.3545,0.10634 0.11048,0.0284 0.22574,0.0374 0.3348,0.0709 0.55244,0.1695 0.40563,0.14204 0.80745,0.33676 0.0777,0.0377 0.15919,0.0675 0.23634,0.10633 0.0871,0.0439 0.17068,0.0945 0.25602,0.1418 0.30712,0.17008 0.4147,0.22196 0.74838,0.46084 0.19296,0.13814 0.60681,0.49636 0.76807,0.6558 0.34068,0.33683 0.68159,0.67403 1.00441,1.028 0.71619,0.78532 0.59998,0.73446 1.16196,1.47111 0.28235,0.37012 0.96915,1.1936 1.20134,1.47112 0.28963,0.34619 0.96161,1.12907 1.22104,1.41794 0.14676,0.16342 0.30122,0.31976 0.45297,0.47856 0.40886,0.42787 0.6473,0.6591 1.08318,1.13436 0.11579,0.12625 0.22229,0.26073 0.3348,0.38992 0.0779,0.0894 0.16098,0.17432 0.23633,0.26587 0.0561,0.0681 0.10415,0.14245 0.15755,0.21269 0.0319,0.042 0.0661,0.0824 0.0985,0.12408 0.0135,0.0174 0.0317,0.0325 0.0394,0.0532 0.006,0.0166 0,0.0354 0,0.0532 0,0.0236 0,0.0473 0,0.0709 0,0.0593 0.006,0.0856 -0.0197,0.14179 -0.0616,0.13311 -0.10691,0.17977 -0.19694,0.30131 -0.0552,0.0745 -0.0817,0.10064 -0.11817,0.17725 -0.007,0.0156 -0.0451,0.0907 0,0.10633 0.19519,0.0676 0.67159,0.0269 0.78777,0.0177 1.22955,-0.0968 1.67297,-0.19207 3.0526,-0.58491 1.34434,-0.38278 2.34075,-0.89205 3.58434,-1.61289 0.47353,-0.27448 0.92021,-0.59439 1.3589,-0.92168 1.61732,-1.20657 2.8107,-2.3308 4.25394,-3.84616 0.50316,-0.5283 0.93364,-1.12134 1.3983,-1.6838 0.65791,-0.79641 1.27058,-1.63203 1.9694,-2.39278 0.80643,-0.87789 1.63575,-1.74077 2.54056,-2.51685 0.50003,-0.42889 1.0906,-0.74032 1.65431,-1.08119 0.27762,-0.16786 0.57385,-0.30316 0.86654,-0.44309 0.31238,-0.14936 1.25612,-0.57392 1.67401,-0.72671 0.51217,-0.18726 0.88329,-0.25801 1.41799,-0.42538 0.18606,-0.0582 0.36671,-0.13261 0.55143,-0.19496 0.72513,-0.24471 1.11096,-0.34695 1.79217,-0.62035 0.23272,-0.0934 0.46477,-0.18965 0.6893,-0.30132 0.53859,-0.26786 0.81982,-0.45066 1.29981,-0.74441 0.37203,-0.22767 1.32768,-0.81646 1.75279,-1.06346 0.2605,-0.15134 0.52479,-0.29609 0.78776,-0.44311 0.60358,-0.33744 1.19949,-0.68909 1.81187,-1.01027 0.37942,-0.199 0.77476,-0.36606 1.16196,-0.54947 1.54215,-0.73048 -0.1134,0.049 1.39828,-0.65579 0.32652,-0.15224 1.1708,-0.54157 1.55584,-0.74442 1.13195,-0.59632 1.04993,-0.6134 2.30423,-1.22298 0.35733,-0.17366 0.5986,-0.26819 0.94532,-0.3722 0.0848,-0.0255 0.16962,-0.0515 0.25602,-0.0709 0.0192,-0.004 0.0394,0 0.0591,0 0.0197,0 0.0394,0 0.0591,0 0.0262,0 0.0558,0.0127 0.0788,0 0.0662,-0.0367 0.14152,-0.0751 0.17725,-0.14179 0.47552,-0.88759 0.55687,-1.64949 0.61052,-2.71181 0.0999,-1.97723 0.10163,-3.95822 0.13786,-5.93764 0.0497,-2.71527 0.10499,-7.44955 0.0197,-10.10284 -0.0944,-2.93803 -0.31242,-5.87114 -0.41358,-8.80895 -0.15484,-4.49668 -0.17144,-7.34453 0.17725,-11.80437 0.30807,-3.9402 0.77397,-7.73295 1.29982,-11.62713 0.26742,-1.980346 0.54919,-3.958728 0.82715,-5.937621 0.16187,-1.152398 0.30959,-2.306971 0.49235,-3.456241 0.33589,-2.11223 0.71589,-4.217226 1.06348,-6.327561 0.066,-0.400674 0.12946,-0.802002 0.17725,-1.205254 0.0913,-0.770228 0.16014,-1.641454 0.19695,-2.428227 0.011,-0.236156 0.0165,-0.472577 0.0197,-0.708972 0.01,-0.727006 -0.0285,-0.589047 0.0394,-1.169799 0.0237,-0.202407 0.0978,-0.733055 0.13786,-0.974834 0.0245,-0.148005 0.0527,-0.295373 0.0788,-0.443111 0.14302,-0.810887 0.0498,-0.436189 0.19694,-0.939387 0.007,-0.02355 0.0123,-0.04752 0.0197,-0.0709 0.006,-0.01802 0.0274,-0.07044 0.0197,-0.05317 -0.0339,0.07633 -0.0589,0.15685 -0.0985,0.230415 -0.0592,0.110075 -0.13198,0.21227 -0.19694,0.319035 -0.49383,0.811562 -0.0568,0.145335 -0.92562,1.329325 -0.94627,1.289597 -1.34829,1.873877 -2.44208,3.420782 -2.68619,3.79894 -2.44816,3.584979 -6.34153,8.312681 -0.66444,0.806816 -1.41149,1.54196 -2.10729,2.321886 -1.12267,1.258411 -2.22671,2.533353 -3.34801,3.79299 -1.30042,1.460857 -2.50126,2.850793 -3.93883,4.165213 -0.63459,0.58024 -1.30872,1.11575 -1.96942,1.66608 -1.62665,1.35492 -2.4973,2.06095 -4.35242,3.33216 -0.97966,0.67131 -1.99119,1.29496 -2.99352,1.93195 -0.49451,0.31427 -0.9912,0.62549 -1.49675,0.92167 -0.19075,0.11175 -0.39477,0.19915 -0.59082,0.3013 -0.17815,0.0928 -0.35431,0.18942 -0.53175,0.28359 -0.0786,0.0417 -0.16044,0.0776 -0.23632,0.12407 -0.0885,0.0542 -0.17179,0.1166 -0.25603,0.17725 -0.36619,0.26365 -0.70166,0.49992 -1.0438,0.77986 -0.041,0.0336 -0.0788,0.0709 -0.11816,0.10635 -0.0394,0.0354 -0.0838,0.066 -0.11817,0.10635 -0.0515,0.0606 -0.0869,0.13381 -0.13785,0.19496 -0.0283,0.0339 -0.0672,0.0574 -0.0985,0.0886 -0.237,0.237 0.0382,-0.008 -0.13786,0.12406 -0.0513,0.0385 -0.0492,0.0739 -0.11817,0.0532 -0.022,-0.007 -0.0391,-0.0242 -0.0591,-0.0355 -0.20978,-0.11867 -0.42212,-0.23287 -0.63021,-0.35448 -0.29744,-0.17382 -0.59545,-0.347 -0.88624,-0.53173 -0.95369,-0.60586 -2.17437,-1.41869 -3.13138,-2.07374 -0.48777,-0.33388 -0.96463,-0.68376 -1.45736,-1.01028 -1.41856,-0.94003 -2.8052,-1.81516 -4.25396,-2.69409 -0.88361,-0.53607 -1.76832,-1.07043 -2.6587,-1.59519 -1.15491,-0.68066 -2.4328,-1.38683 -3.60404,-2.03828 -0.92528,-0.51464 -1.84526,-1.03896 -2.77689,-1.542026 -1.66957,-0.901549 -6.686731,-3.432373 -7.444403,-3.828436 -0.500946,-0.261863 -0.986713,-0.551834 -1.477063,-0.833038 -0.921083,-0.528219 -1.839902,-1.060397 -2.75718,-1.595197 -1.064449,-0.620339 -2.341672,-1.373679 -3.387515,-2.03808 C 85.928612,89.164545 89.027401,91.064661 86.225572,89.337554 85.235417,88.7272 84.228137,88.144098 83.251748,87.511955 82.940286,87.310306 82.647466,87.079626 82.36551,86.838434 81.703393,86.272046 81.183929,85.750372 80.61273,85.11918 80.306261,84.780521 80.000932,84.440595 79.706794,84.091173 79.418295,83.748448 78.907242,83.069244 78.64331,82.69095 78.44787,82.410828 78.263897,82.122872 78.072175,81.840191 77.955348,81.667939 77.835635,81.497664 77.717683,81.326182 77.579613,81.125453 77.45002,80.91866 77.304105,80.723559 77.219925,80.611 77.122937,80.508527 77.028388,80.404524 c -0.351147,-0.386246 -0.204224,-0.181001 -0.61052,-0.638074 -0.445847,-0.501565 0.05844,-5.29e-4 -0.413579,-0.478557 -0.03103,-0.03142 -0.06725,-0.0574 -0.09847,-0.08862 -0.02795,-0.02795 -0.04838,-0.06337 -0.07878,-0.08862 -0.05548,-0.04608 -0.119033,-0.0815 -0.177247,-0.124071 -0.19822,-0.144949 -0.114141,-0.105735 -0.37419,-0.265866 -0.044,-0.02709 -0.0919,-0.04727 -0.137858,-0.0709 -0.04596,-0.02363 -0.09219,-0.04672 -0.137861,-0.0709 -0.06593,-0.03491 -0.127082,-0.08015 -0.196935,-0.106344 -0.64598,-0.20124 -0.320013,-0.08501 -0.689303,-0.230413 -0.206134,-0.08116 -0.09943,-0.03467 -0.354494,-0.141795 -0.02655,-0.01114 -0.05316,-0.02228 -0.07877,-0.03545 -0.02043,-0.0105 -0.03776,-0.02692 -0.05908,-0.03545 -0.03818,-0.01527 -0.09338,-0.06826 -0.118169,-0.03545 -0.10556,0.139707 -0.144422,0.319037 -0.216633,0.478557"
       id="path47" />
    <path
       style="fill:none;stroke:#000000;stroke-width:0.264583px;stroke-linecap:butt;stroke-linejoin:miter;stroke-opacity:1"
       d="m 109.26778,49.156617 c 7.93112,5.020672 -3.87933,-2.405359 5.06141,3.030849 1.55185,0.943568 3.10562,1.886924 4.60843,2.906787 1.32839,0.901488 2.55967,1.940004 3.87976,2.853605 0.84112,0.582118 1.73096,1.090496 2.59963,1.630635 0.57559,0.357899 1.15478,0.709983 1.7331,1.063451 2.00814,1.22737 4.34674,2.530086 6.30213,3.987966 1.67774,1.250868 2.3025,1.808237 3.78128,3.048574 0.47237,0.396198 0.94607,0.790795 1.41799,1.18753 1.65108,1.388062 1.57866,1.338738 2.95412,2.481397 0.49169,0.408464 0.98035,0.820642 1.47707,1.222973 1.12641,0.912363 1.39531,1.041321 2.83596,2.056014 0.55934,0.393956 1.12086,0.784939 1.67401,1.187529 0.315,0.229256 0.8218,0.645943 1.12256,0.903936 0.24506,0.210201 0.48008,0.432088 0.72869,0.638074 0.29484,0.244282 0.82904,0.623393 1.14227,0.815322 0.4013,0.245893 0.81302,0.474368 1.22103,0.708964 0.30099,0.173066 0.60085,0.348276 0.90594,0.514011 0.42368,0.230156 0.85283,0.450117 1.28011,0.673518 0.74485,0.389438 0.81347,0.419666 1.55585,0.797592 0.39402,0.200591 0.78725,0.402754 1.18164,0.602623 0.28178,0.142801 0.56653,0.279765 0.84686,0.425384 0.69785,0.362497 1.39258,0.730972 2.08758,1.098904 0.45961,0.243316 0.64575,0.304956 1.00441,0.655804 0.027,0.02643 0.0263,0.0709 0.0394,0.106342"
       id="path48" />
    <path
       style="fill:none;stroke:#000000;stroke-width:0.264583px;stroke-linecap:butt;stroke-linejoin:miter;stroke-opacity:1"
       d="m 74.901427,79.730991 c 1.884076,-1.022099 3.839736,-1.922053 5.652235,-3.066296 3.09762,-1.955554 6.06158,-4.115761 9.059323,-6.221228 4.952375,-3.478302 4.907952,-4.242527 11.796815,-8.029093 4.13458,-2.27263 5.33458,-2.605008 8.74422,-3.367614 0.52409,-0.117218 1.05051,-0.223766 1.57554,-0.336756 0.38091,-0.08198 0.76033,-0.171045 1.14226,-0.248142 0.66228,-0.133692 2.0754,-0.345903 2.57993,-0.54945 0.53556,-0.216064 0.82813,-0.771443 1.10288,-1.222976 0.1633,-0.268361 0.31019,-0.546459 0.47267,-0.815321 0.39044,-0.646105 0.77041,-1.218171 1.14225,-1.861042 0.26352,-0.455602 0.35498,-0.58823 0.51206,-1.028015 0.0121,-0.03395 0.0125,-0.07101 0.0197,-0.106341 0.006,-0.02966 0.0142,-0.05887 0.0197,-0.08862 0.004,-0.01918 0.0277,-0.134001 0.0197,-0.177247 -0.0122,-0.06572 -0.0927,-0.163716 -0.11817,-0.194969 -0.0361,-0.04427 -0.077,-0.08451 -0.11817,-0.124065 -0.0573,-0.05504 -0.11457,-0.110638 -0.17724,-0.159523 -0.049,-0.03819 -0.11305,-0.07706 -0.17725,-0.08862 -0.0456,-0.0082 -0.0917,-0.01357 -0.13786,-0.01773 -0.0196,-0.0019 -0.0465,-0.01513 -0.0591,0 -0.14812,0.177734 -0.28021,0.433459 -0.39389,0.638078"
       id="path49" />
    <path
       style="fill:none;stroke:#000000;stroke-width:0.264583px;stroke-linecap:butt;stroke-linejoin:miter;stroke-opacity:1"
       d="m 123.93995,113.86794 c -0.34136,0.70306 -0.7346,1.38323 -1.02409,2.10919 -0.38801,0.97299 -0.69761,1.97611 -1.00441,2.97768 -3.8204,12.47182 -3.02456,9.59723 -5.86887,23.077 -0.35923,1.70247 -0.68366,3.41218 -1.00441,5.12232 -0.64986,3.46495 -1.50059,7.94316 -1.98911,11.6094 -0.19871,1.49128 -0.34967,2.98857 -0.51204,4.48425 -0.14237,1.31149 -0.14167,1.54639 -0.23634,2.69408 -0.22256,2.69821 -0.20294,2.58237 -0.43327,4.82101 -0.0377,0.36648 -0.0738,0.73318 -0.11816,1.09891 -0.041,0.3374 -0.0922,0.67347 -0.13786,1.01027 -0.0528,0.38989 -0.10504,0.77987 -0.15755,1.1698 -0.0263,0.19497 -0.0459,0.39095 -0.0788,0.58491 -0.0263,0.15487 -0.0689,0.30656 -0.0985,0.46083 -0.003,0.0174 0.003,0.0358 0,0.0532 -0.003,0.0186 -0.0254,0.0352 -0.0197,0.0532 0.009,0.0293 0.0362,0.0503 0.0591,0.0709 0.16807,0.15126 0.22032,0.16117 0.45297,0.26586 0.0843,0.0379 0.16387,0.0994 0.25602,0.10635 0.0302,0.002 -0.0131,-0.0591 -0.0197,-0.0886"
       id="path50" />
    <path
       style="fill:none;stroke:#c26716;stroke-width:1.5;stroke-linecap:butt;stroke-linejoin:miter;stroke-opacity:1;stroke-dasharray:none"
       d="m 109.09074,79.817642 c -0.32167,-2.079647 -0.70717,-4.150421 -0.96502,-6.238941 -0.1954,-1.582677 -0.27579,-3.177522 -0.39388,-4.767837 -0.2106,-2.836392 -0.25827,-5.414764 -0.31511,-8.330404 -0.0354,-1.813546 -0.064,-3.627466 -0.0591,-5.441349 0.002,-0.591391 0.0472,-1.18188 0.0788,-1.77243 0.0704,-1.316392 0.20448,-3.090162 0.23633,-4.501962 0.0151,-0.667478 0.0155,-1.335212 0.0197,-2.002846 0.005,-0.84173 0.004,-1.258125 -0.0197,-2.073741 -0.0252,-0.885642 -0.0429,-1.518414 -0.13786,-2.410499 -0.0177,-0.166407 -0.12765,-0.572836 -0.15755,-0.744424 -0.0104,-0.05969 -0.12642,-0.879284 -0.13786,-0.992561 -0.056,-0.553995 -0.054,-0.926771 -0.0394,-1.524288 0.0116,-0.472914 0.0389,-0.945311 0.0591,-1.417936 0.006,-0.141817 0.0163,-0.283478 0.0197,-0.425384 0.003,-0.135848 0,-0.271772 0,-0.40766 0,-0.224507 0,-0.449013 0,-0.67352 0,-0.194966 -0.0127,-0.390348 0,-0.584901 0.0685,-1.048391 0.0667,-0.628359 0.17724,-1.364769 0.007,-0.0709 0.0131,-0.141795 0.0197,-0.212691 0.007,-0.01773 0.0162,-0.03459 0.0197,-0.05318 0.003,-0.01744 0,-0.03545 0,-0.05317 0,-0.04726 0,-0.09453 0,-0.141795 0,-0.08862 0,-0.177239 0,-0.265859 0,-0.03545 -0.004,-0.07117 0,-0.106349 0.002,-0.01876 0.003,-0.04391 0.0197,-0.05318 0.0931,-0.05236 0.19694,-0.08271 0.29541,-0.124066"
       id="path51" />
    <path
       style="fill:none;stroke:#c26716;stroke-width:1.5;stroke-linecap:butt;stroke-linejoin:miter;stroke-opacity:1;stroke-dasharray:none"
       d="m 125.27935,76.85769 c -0.0591,-0.466739 -0.12996,-0.932135 -0.17723,-1.400218 -0.0616,-0.610123 -0.12679,-2.021866 -0.13787,-2.570014 -0.047,-2.327759 -0.0304,-3.542411 0.13787,-6.008539 0.0574,-0.841322 0.17396,-1.677567 0.25602,-2.516841 0.13457,-1.37627 0.25279,-2.754141 0.39388,-4.129754 0.0559,-0.54464 0.13233,-1.086967 0.19694,-1.630638 0.25095,-2.111674 0.1827,-1.73151 0.55144,-4.182928 0.0784,-0.521009 0.17035,-1.039881 0.25602,-1.559739 0.11783,-0.714931 0.24541,-1.428314 0.3545,-2.144631 0.0682,-0.447725 0.11287,-0.89876 0.17725,-1.347047 0.0604,-0.420269 0.13562,-0.838297 0.19694,-1.258427 0.28506,-1.953035 0.41615,-2.711616 0.57113,-4.448788 0.0268,-0.300763 0.0454,-0.602295 0.0591,-0.903941 0.0397,-0.876065 0.009,-1.12381 0,-2.091465 -0.003,-0.307208 -0.008,-0.614538 0,-0.921663 0.0121,-0.484714 0.0395,-0.968926 0.0591,-1.453391 0.0263,-0.649885 0.0595,-1.299535 0.0788,-1.949669 0.0173,-0.580909 0.0356,-1.423895 0,-2.056011 -0.0172,-0.306594 -0.0428,-0.723361 -0.11817,-1.045737 -0.0266,-0.113879 -0.0731,-0.222589 -0.0985,-0.336756 -0.08,-0.360143 -0.12964,-0.735494 -0.19694,-1.09891 -0.0994,-0.536975 -0.10544,-0.499822 -0.17726,-0.939387 -0.0723,-0.442556 0.003,-0.09533 -0.11815,-0.584901 -0.053,-0.214551 -0.0204,-0.10817 -0.0985,-0.319032 -0.007,-0.01773 -0.0138,-0.07112 -0.0197,-0.05318 -0.13834,0.418801 -0.21771,0.799332 -0.31511,1.222975"
       id="path52" />
    <path
       style="fill:none;stroke:#34c10c;stroke-width:1.5;stroke-linecap:butt;stroke-linejoin:miter;stroke-opacity:1;stroke-dasharray:none"
       d="m 93.886826,8.6724023 c -1.260425,1.3588617 -2.603548,2.6454577 -3.78128,4.0765867 -0.81127,0.985824 -1.425448,3.049344 -1.772475,4.112031 -0.476798,1.460071 -0.866378,2.997412 -1.24074,4.48424 -0.103801,0.41226 -0.194379,0.82775 -0.295407,1.240698 -0.05653,0.231056 -0.122677,0.459723 -0.177247,0.69125 -0.218813,0.928365 -0.412221,1.751531 -0.571135,2.676364 -0.03941,0.229381 -0.06924,0.46035 -0.09847,0.69125 -0.09063,0.715965 -0.114109,1.059603 -0.137858,1.84332 -0.0082,0.271651 -0.0027,0.543563 0,0.815322 0.004,0.403661 -0.03716,1.335336 0.137858,1.807876 0.154411,0.416896 0.353417,0.817629 0.571132,1.205246 0.08611,0.15331 0.213532,0.280329 0.334804,0.40766 0.194366,0.204078 0.39438,0.404034 0.610513,0.584901 0.275002,0.230126 0.773133,0.526616 1.102878,0.655796 0.35373,0.138576 0.715481,0.258964 1.083178,0.354486 0.852749,0.221533 1.917824,0.20519 2.73749,0.141796 0.212995,-0.01648 0.416142,-0.106336 0.610521,-0.194969 0.520936,-0.23754 0.950849,-0.502775 1.378598,-0.86849 0.509014,-0.435197 0.655154,-0.563784 1.004401,-1.045728 0.09124,-0.12591 0.170249,-0.260247 0.256027,-0.389938 0.07834,-0.118448 0.159083,-0.235312 0.236323,-0.354481 0.01471,-0.02267 0.02397,-0.04869 0.0394,-0.0709 0.01021,-0.01471 0.09377,-0.08036 0.05908,-0.124071 -0.02513,-0.03168 -0.06212,-0.05317 -0.09847,-0.0709 -0.121878,-0.05942 -0.247859,-0.110252 -0.374182,-0.159517 -0.0755,-0.02944 -0.341156,-0.125715 -0.433274,-0.08863 -0.191746,0.0772 -0.36848,0.19227 -0.531746,0.31904 -0.173805,0.13495 -0.327631,0.295343 -0.472662,0.460827 -0.319715,0.364807 -0.711168,0.858922 -0.945317,1.311595 -0.08542,0.165148 -0.148058,0.341188 -0.216641,0.514011 -0.137543,0.346599 -0.323916,0.76426 -0.374189,1.152078 -0.02739,0.211326 -0.03211,0.425098 -0.03939,0.638069 -0.0058,0.171236 -0.03317,0.345914 0,0.514009 0.09241,0.468381 0.216329,0.931934 0.37419,1.382493 0.172571,0.492551 0.726757,1.138642 1.024096,1.471112 0.181991,0.203491 0.386461,0.38617 0.59083,0.567177 0.579988,0.513686 1.025353,0.814568 1.713394,1.240698 0.654169,0.405153 2.326735,1.19867 2.698105,1.382492 0.275484,0.136361 0.552413,0.269807 0.827153,0.40766 1.264036,0.634238 1.286416,0.676357 2.461776,1.205254 0.61489,0.276693 1.23256,0.547221 1.85125,0.815313 1.04722,0.453782 1.57779,0.646766 2.59964,1.134356 0.56251,0.268415 1.10965,0.568505 1.674,0.833038 0.99941,0.468458 1.96445,0.821238 3.05261,1.08118 0.42531,0.1016 0.86399,0.141589 1.29981,0.177247 1.22561,0.100275 2.15344,0.02233 3.4071,-0.265866 0.52204,-0.12001 1.0424,-0.282311 1.51645,-0.531725 1.56324,-0.822484 2.57985,-1.564953 3.72219,-2.835889 1.45116,-1.61452 1.77494,-2.57107 2.34362,-4.998244 0.15101,-0.644543 0.0677,-1.323173 0.0591,-1.985116 -0.006,-0.45467 -0.1029,-1.238922 -0.23632,-1.719254 -0.0375,-0.135075 -0.0979,-0.26307 -0.15755,-0.389938 -0.0131,-0.02784 -0.0459,-0.09867 -0.0591,-0.0709 -0.0279,0.05868 -0.0156,0.131892 0,0.194969 0.13585,0.547524 0.29906,1.087909 0.45296,1.630635 0.16777,0.591643 0.33306,1.184082 0.51206,1.772425 0.34622,1.137968 0.58807,1.83051 1.18164,2.94223 0.18798,0.352063 0.41211,0.687637 0.66961,0.992561 0.24449,0.28952 0.52264,0.554323 0.82715,0.77987 0.8236,0.610023 1.45882,0.947317 2.383,1.276144 0.51286,0.182477 1.02876,0.360246 1.55585,0.496279 0.54426,0.140464 1.75221,0.288152 2.3042,0.301312 1.24503,0.02968 1.84703,0.03812 2.97383,-0.283591 0.2861,-0.08168 2.23098,-0.678495 2.65872,-1.06345 0.68549,-0.616921 1.3122,-1.307753 1.85125,-2.056019 0.24583,-0.341233 0.34965,-0.767633 0.47266,-1.1698 0.19942,-0.651941 0.37317,-1.313865 0.49236,-1.985123 0.085,-0.478576 0.0925,-0.968005 0.11816,-1.453388 0.0992,-1.874772 0.0398,-1.649389 -0.23633,-3.81072 -0.0537,-0.420198 -0.0985,-0.842187 -0.17724,-1.258422 -0.079,-0.417721 -0.12382,-0.851741 -0.29542,-1.240697 -0.38439,-0.871239 -0.79133,-1.240338 -1.47706,-1.790152 -0.24795,-0.198808 -0.43723,-0.278628 -0.709,-0.425384 -0.0202,-0.0109 -0.0761,-0.02008 -0.0591,-0.03545 0.0296,-0.02664 0.0786,-0.0227 0.11815,-0.01773 0.2904,0.03659 0.57775,0.09428 0.86655,0.141796 0.44173,0.07267 1.732,0.295767 2.12697,0.31904 0.71442,0.0421 1.4321,0.07482 2.14666,0.03545 1.53765,-0.08473 3.06512,-0.597718 4.50997,-1.045729 0.63713,-0.197556 1.26564,-0.422722 1.89065,-0.655799 1.29388,-0.482512 2.3278,-0.906714 3.50556,-1.666086 0.30103,-0.194093 0.61528,-0.406715 0.80746,-0.708966 0.46852,-0.736825 0.83096,-1.541544 1.14227,-2.35733 0.22305,-0.584497 0.30687,-2.728577 0.31511,-3.066303 0.0107,-0.437265 0.0217,-0.878495 -0.0394,-1.311595 -0.0905,-0.640667 -0.24221,-1.272579 -0.41358,-1.896495 -0.11808,-0.429902 -0.28184,-0.846754 -0.45297,-1.258427 -0.58379,-1.404437 -1.43157,-2.750862 -2.383,-3.917063 -0.66304,-0.812713 -1.5256,-1.3381573 -2.42238,-1.8255979 -0.31546,-0.1714698 -0.64279,-0.3201394 -0.96501,-0.4785579 -0.38678,-0.1901616 -0.77492,-0.3775363 -1.16196,-0.5671778 -0.39495,-0.1935207 -0.87602,-0.4288898 -1.26043,-0.6380747 -0.0681,-0.037085 -0.13096,-0.083246 -0.19693,-0.1240684 -0.0391,-0.02417 -0.11817,-0.024963 -0.11817,-0.070897 0,-0.057113 0.067,-0.098669 0.11817,-0.1240684 0.33313,-0.1654165 0.67992,-0.3020629 1.02408,-0.4431059 1.44557,-0.592409 1.03726,-0.3711422 2.59965,-1.0102837 0.86243,-0.3528023 2.70174,-1.0478804 3.58433,-1.701533 0.85917,-0.636306 1.68252,-1.324021 2.46178,-2.0560158 0.27618,-0.2594315 0.49739,-0.5772015 0.68929,-0.9039377 0.49017,-0.8345971 0.94653,-1.80418986 1.08318,-2.7827105 0.0942,-0.6744371 0.13394,-1.3573188 0.13786,-2.0382896 0.004,-0.6617065 -0.15071,-2.064121 -0.47266,-2.6763681 -0.55349,-1.0525694 -1.16007,-2.0904372 -1.91034,-3.0131247 -0.51634,-0.6350063 -1.19677,-1.1214829 -1.85125,-1.6129099 -0.9368,-0.70341 -2.23942,-1.266291 -3.30862,-1.683807 -0.89497,-0.349485 -4.54557,-1.754171 -6.04612,-2.109187 -0.59423,-0.140592 -2.47091,-0.372067 -3.17076,-0.389935 -1.27044,-0.03244 -2.10568,0.148121 -3.40709,0.407657 -0.47643,0.09501 -0.94835,0.212452 -1.41799,0.336764 -1.22477,0.324196 -1.96891,0.520408 -3.07229,0.974835 -0.39938,0.164485 -0.79027,0.349009 -1.18165,0.531725 -0.50193,0.234331 -2.54582,1.19863 -3.22984,1.577462 -0.61262,0.33929 -1.21209,0.70195 -1.81187,1.063458 -0.0123,0.0074 -0.56916,0.3904811 -0.61052,0.4253834 -0.0207,0.017433 -0.0494,0.045768 -0.0394,0.070894 0.0666,0.1678715 0.31689,0.3142091 0.45295,0.3722121 0.1382,0.058914 0.28482,0.1470554 0.43329,0.1240684 0.47978,-0.074286 0.98531,-0.1523764 1.39828,-0.4076573 0.27493,-0.1699524 0.42544,-0.4999405 0.55143,-0.7975926 0.17753,-0.419385 0.0578,-1.183979 -0.15755,-1.542012 -0.678,-1.12716 -1.34237,-1.761453 -2.42239,-2.445951 -1.65718,-1.050295 -3.48455,-1.599576 -5.3765,-2.144635 -1.02715,-0.295914 -2.07653,-0.518397 -3.13138,-0.691246 -2.0462,-0.335293 -4.23448,-0.520593 -6.32184,-0.602627 -1.27449,-0.05009 -2.68003,-0.05159 -3.95853,0.01772 -0.46724,0.02533 -0.93271,0.07728 -1.39828,0.124072 -0.66671,0.06701 -2.93678,0.267892 -3.86007,0.496277 -0.67252,0.166358 -1.3343,0.376371 -1.98911,0.602626 -0.0848,0.02929 -0.19586,0.07228 -0.21663,0.159521 -0.0675,0.283531 0.43646,0.728011 0.53174,0.815314 0.62485,0.572573 0.92398,0.713752 1.81186,0.974835 0.51562,0.151619 1.39109,0.146675 1.89064,0.159521 0.10501,0.0027 0.37338,0.0874 0.31512,0 -0.12121,-0.181816 -0.35521,-0.258338 -0.55144,-0.354486 -1.56662,-0.767624 -3.15299,-1.096959 -4.92355,-1.382493 -1.429481,-0.230527 -4.173953,-0.318605 -5.691622,-0.141794 -1.178708,0.137321 -2.346674,0.365075 -3.50557,0.620349 -1.275718,0.281007 -2.835643,0.813352 -3.997918,1.435667 -0.442087,0.236704 -0.843677,0.544471 -1.240732,0.850763 -0.477192,0.36811 -0.955085,0.741015 -1.37859,1.169804 -0.629586,0.637439 -1.21122,1.322215 -1.772478,2.020567 -1.121143,1.3949936 -2.668154,4.0428219 -3.3874,5.2818323 -1.018225,1.7540456 -1.369798,2.6635169 -1.989111,4.73238384 -0.09942,0.33210909 -0.141655,0.68170106 -0.157556,1.02800616 -0.01709,0.3723382 -0.01011,0.7503758 0.05908,1.1166294 0.0658,0.3483533 0.465124,1.0208089 0.689295,1.2761463 0.347488,0.3957987 0.99119,1.0433971 1.555837,1.2229754 0.621692,0.1977204 1.266764,0.3185805 1.910337,0.4253833 0.638715,0.1059963 1.762736,-0.017465 2.304224,-0.1240684 0.370986,-0.073036 0.730832,-0.199579 1.083175,-0.3367636 1.101326,-0.4288025 1.891824,-0.8347217 2.914746,-1.3647663 0.461224,-0.2389918 0.919059,-0.4844653 1.37859,-0.726698 0.741812,-0.3663012 1.490829,-0.7183675 2.225442,-1.0989034 0.872061,-0.45173557 1.268534,-0.70009661 2.028497,-1.25842383 0.0044,-0.0032308 0.203057,-0.17227982 0.09847,-0.23041424 -0.20805,-0.1156486 -0.439794,-0.18609478 -0.669597,-0.24814023 -0.92184,-0.24889015 -2.114402,-0.29753745 -2.99352,-0.31903747 -0.512202,-0.0125267 -1.037876,-0.0661361 -1.536147,0.0531712 -0.948015,0.22699553 -1.887789,0.53390652 -2.757181,0.97483497 -0.696166,0.3530728 -1.605544,2.1451709 -1.792176,2.5700221 -0.182147,0.4146418 -0.26884,0.8668827 -0.354491,1.3115952 -0.236334,1.2270771 -0.196948,2.1952381 0,3.4739566 0.172254,1.1183908 0.784275,2.4670267 1.240732,3.4385107 0.20021,0.426111 0.872331,1.600916 1.181652,2.020567 0.307195,0.416765 0.706573,1.008078 1.26043,1.187523 0.311129,0.100804 0.638959,0.15173 0.965013,0.177247 0.383272,0.02999 1.583166,-0.09264 1.890641,-0.194969 0.932963,-0.310493 1.855591,-0.664065 2.73749,-1.098904 0.361159,-0.178077 0.658132,-0.465977 0.965012,-0.726694 0.848125,-0.720546 1.66057,-1.509639 2.442083,-2.304156 0.729178,-0.7413111 1.144794,-1.1352897 1.73309,-1.8787726 0.131505,-0.166193 0.256122,-0.3380144 0.374192,-0.5140063 0.0922,-0.137432 0.109254,-0.3489081 0.256019,-0.4253799 0.07655,-0.039885 0.07878,0.1536095 0.118163,0.2304143"
       id="path53" />
    <path
       style="fill:none;stroke:#136906;stroke-width:1.5;stroke-linecap:butt;stroke-linejoin:miter;stroke-opacity:1;stroke-dasharray:none"
       d="m 101.67463,1.2629711 c -0.85998,0.661705 -1.839844,1.1915921 -2.579939,1.9851152 -0.35469,0.380296 -0.458438,0.9383726 -0.610521,1.4356668 -0.439875,1.4383572 -0.805622,2.8988778 -1.161957,4.360175 -0.82568,3.3860469 -1.710209,8.7266439 -2.12697,11.5916699 -0.150185,1.032456 -0.203401,2.077484 -0.256026,3.119478 -0.05794,1.1472 -0.24737,3.973106 0.05908,5.512246 0.131995,0.66294 0.571735,1.862148 0.925618,2.499124 0.580866,1.045538 1.457624,1.792266 2.284534,2.658642 0.337347,0.353449 1.026869,1.122931 1.516449,1.453391 0.374392,0.252706 0.839322,0.410159 1.299822,0.354486 0.74048,-0.08952 1.39147,-1.22019 1.61493,-1.612914 0.41566,-0.730519 0.72966,-1.516919 1.0241,-2.304155 0.38267,-1.023173 0.72004,-2.064735 1.00439,-3.119472 0.41862,-1.552784 0.73223,-3.131999 1.10287,-4.696931 0.24645,-1.040542 0.4628,-2.088981 0.74838,-3.11947 0.40402,-1.457886 0.83377,-2.909719 1.31952,-4.342446 0.50819,-1.4989 1.27125,-3.155411 1.96942,-4.590589 0.2525,-0.519038 0.52099,-1.030173 0.78776,-1.542016 0.33063,-0.634358 0.65495,-1.2723169 1.00441,-1.8964959 0.0778,-0.1388994 0.17163,-0.269489 0.27572,-0.3899313 0.16454,-0.1903897 0.40775,-0.3516312 0.63021,-0.4608351 0.094,-0.046118 0.19754,-0.069258 0.29541,-0.1063424 1.46346,-0.5726488 -0.17605,0.054707 0.68929,-0.2481437 0.0408,-0.014269 0.0765,-0.04191 0.11817,-0.053168 0.0253,-0.00684 0.0525,0 0.0788,0 0.0328,0 0.0657,0.00164 0.0985,0 0.0854,-0.00427 0.17096,-0.00872 0.25603,-0.01773 0.075,-0.00794 0.22988,-0.07312 0.27572,-0.07089 0.17948,0.00873 0.36929,0.011806 0.53173,0.08862 0.77643,0.3671419 1.53731,1.5353895 1.75279,2.1623615 0.46557,1.3546379 0.76257,2.7754329 0.90593,4.2006509 0.20312,2.019365 -0.0815,4.72791 -0.3348,6.823849 -0.73025,6.043195 -0.29224,2.055348 -0.82716,6.256664 -0.002,0.01662 -0.28637,2.132079 -0.13786,2.268709 1.01258,0.931548 2.43485,0.580004 3.50557,0.159518 0.89852,-0.352864 1.77496,-0.774388 2.59964,-1.276149 1.04571,-0.636244 2.0742,-1.31871 2.99351,-2.12691 1.35864,-1.194439 2.96447,-4.833123 3.3874,-5.831288 0.21874,-0.516239 1.07838,-3.579199 0.96501,-4.377897 -0.14346,-1.010796 -0.47427,-2.011534 -0.96501,-2.906779 -0.63747,-1.162915 -2.68274,-1.717999 -3.72221,-1.843328 -0.54163,-0.0653 -1.21897,-0.109446 -1.61491,0.265866 -1.76279,1.670961 -2.12401,3.749975 -1.83156,6.026257 0.1135,0.883505 0.22417,1.897585 0.84684,2.53457 1.2936,1.323345 2.87874,2.46277 4.62814,3.066296 1.52166,0.524959 3.22037,0.321335 4.82508,0.194969 1.60613,-0.126478 4.50387,-1.310736 5.86887,-2.12691 1.55137,-0.92761 3.46363,-2.033659 4.0176,-3.952514 0.37787,-1.308878 0.83924,-2.698141 0.61052,-4.041134 -0.65573,-3.8503402 -2.54571,-6.4230737 -5.47498,-8.7380733 -0.64772,-0.5118933 -1.42723,-0.9334431 -2.24514,-1.0457288 -1.18002,-0.1619983 -2.42659,-0.1033132 -3.56464,0.2481371 -1.67561,0.5174541 -3.95289,2.9539014 -4.7463,4.3070004 -1.35167,2.3051606 -3.30207,6.0056196 -2.59963,9.0216546 0.36793,1.579771 1.09878,3.109801 2.08758,4.395621 0.61873,0.8046 1.61589,1.276336 2.56025,1.648358 2.66266,1.048928 4.97322,0.422361 7.58226,-0.726695 1.04934,-0.462143 1.99877,-1.179321 2.79658,-2.002844 1.05627,-1.090323 1.98383,-2.329392 2.69809,-3.668926 0.40276,-0.755332 0.48783,-1.649335 0.59083,-2.499118 0.0953,-0.785931 0.37433,-1.677457 0,-2.375053 -0.98598,-1.8374749 -2.26858,-3.5923765 -3.89944,-4.8919011 -1.38038,-1.0999234 -3.18367,-1.5528025 -4.86448,-2.0914642 -1.68047,-0.5385562 -4.32882,-0.8154438 -6.00671,0.1063423 -1.36044,0.7473829 -2.61154,1.7477227 -3.62373,2.9245084 -1.63606,1.9020996 -2.25991,5.7901046 -1.41799,7.9936486 0.75661,1.98025 2.13269,3.813083 3.84037,5.06914 1.95606,1.438753 5.0351,1.078473 6.77479,-0.443105 1.17841,-1.030662 2.18028,-2.290298 2.95413,-3.651203 0.89744,-1.578258 1.19927,-4.813259 1.0438,-6.540253 -0.17121,-1.9018039 -0.51776,-4.6945341 -2.0285,-6.2566704 -0.71757,-0.7419662 -1.57781,-1.3642916 -2.50117,-1.825598 -0.98768,-0.4934368 -3.1174,-0.9950655 -4.31303,-0.4962805 -1.40114,0.5845216 -3.42336,2.7225329 -4.01762,3.9347851 -1.42507,2.9070805 -2.2928,4.6483928 -0.49235,7.2492318 1.92126,2.775344 4.24519,2.928223 7.58227,0.691242 1.23244,-0.826158 1.64235,-2.50395 2.14667,-3.8993396 0.27983,-0.7742489 0.4155,-3.5539534 -0.11817,-4.5196852 -0.82064,-1.485056 -3.12888,-2.4795221 -4.54936,-2.8004366 -2.13113,-0.4814647 -4.33181,-1.1272844 -6.49908,-0.8507663 -4.73387,0.6039845 -7.14401,2.8284098 -10.22128,5.919907 -1.10892,1.1140533 -3.43441,4.2208197 -4.29333,5.4413557 -0.17892,0.254252 -0.32965,0.529921 -0.45297,0.815315 -0.0623,0.144191 -0.25456,0.478389 -0.0985,0.460828 1.41605,-0.159306 2.28714,-2.60491 2.54055,-3.314439 1.21809,-3.4105712 1.23564,-5.2392301 0.59083,-8.8266862 -0.092,-0.5120242 -0.33095,-1.02309665 -0.68929,-1.40022158 -0.48386,-0.50920727 -1.10098,-0.90797853 -1.75279,-1.16980061 -1.16229,-0.46687111 -2.69703,-0.34470178 -3.52527,0.77986932 -1.15115,1.56302357 -2.01653,3.33769767 -2.73749,5.14003767 -0.52986,1.3246285 -0.96003,2.7387455 -0.9847,4.165206 -0.0289,1.6710094 0.18435,3.4023814 0.82715,4.9450754 0.19047,0.457107 0.9428,0.582476 1.41799,0.443106 1.10701,-0.324684 2.21843,-0.882481 2.9935,-1.736978 0.86943,-0.95852 1.44871,-2.211503 1.7331,-3.4739569 0.34146,-1.5157939 0.63484,-4.135702 -0.6893,-5.5299757 -0.34906,-0.367556 -0.82148,-0.5972546 -1.26043,-0.8507667 -1.22995,-0.7103486 -2.32229,-1.9923881 -3.74189,-2.0382896 -1.15696,-0.037409 -6.02459,0.8434836 -7.424713,2.8536042 -0.51449,0.7386394 -1.127908,1.5296742 -1.181647,2.4282278 -0.100989,1.688547 0.3811,4.9098129 2.816264,5.1577669 2.947631,0.300135 4.098767,-1.099821 5.356816,-3.3853367 0.54264,-0.9858242 0.99895,-2.0479707 1.20135,-3.1549223 0.0507,-0.2775124 0.55891,-4.1295349 -0.43328,-5.15776709 -1.20188,-1.24554791 -3.009636,-1.91298671 -4.726605,-1.84332411 -0.753859,0.030586 -1.596906,0.1608528 -2.16635,0.6558009 -1.837957,1.59751518 -4.046302,4.7670402 -4.0767,7.4441935 -0.03252,2.8641831 0.194403,5.7736448 0.925631,8.5431038 0.247796,0.938502 1.163101,1.578253 1.910324,2.197807 0.69138,0.573253 1.508755,0.998212 2.343618,1.329318 0.974725,0.386574 2.653787,-0.373383 3.190449,-0.95711 1.029053,-1.119299 1.765273,-4.547767 1.752793,-5.831287 -0.0172,-1.7659374 0.29529,-8.0808273 -3.899455,-3.7929902 -0.986301,1.0081919 -1.287923,2.5500602 -1.555843,3.9347852 -0.512683,2.649769 -1.014743,7.761052 0.275717,10.687743 1.015344,2.302737 2.185585,4.672751 4.982631,4.395621 2.21484,-0.219445 3.34128,-2.66834 3.97823,-4.377899 0.52756,-1.41596 0.20987,-3.573087 -0.43327,-4.891901 -0.17982,-0.36873 -0.56278,-0.608219 -0.90593,-0.833043 -1.19676,-0.784092 -2.63789,-1.292053 -4.116085,-0.992555 -0.505434,0.102407 -1.048988,0.482151 -1.201351,0.974832 -0.446006,1.442215 -0.768925,3.017917 -0.492353,4.501969 0.438441,2.352612 1.27282,4.695171 2.579949,6.699777 1.19127,1.82694 4.07617,3.61052 6.42029,3.668919 1.01961,0.0254 2.04668,-0.206084 3.01322,-0.531725 0.97324,-0.327898 1.29114,-1.856494 1.22103,-2.62319 -0.16237,-1.775664 -0.43507,-3.570441 -1.04379,-5.246388 -0.98561,-2.713603 -3.40866,-4.4284 -5.79009,-5.778113 -0.37711,-0.213731 -2.34185,-0.860148 -2.89504,-0.03545 -0.69931,1.04253 -1.310157,2.203673 -1.536148,3.438512 -0.645076,3.52479 0.979368,6.996881 2.698098,9.907866 1.11233,1.883924 4.01838,4.666094 6.16428,5.423633 1.51295,0.534096 3.17013,0.839243 4.766,0.673521 0.92499,-0.09605 1.75028,-0.755224 2.40269,-1.417944 1.98844,-2.019896 2.15317,-4.846315 2.14667,-7.51509 -0.003,-1.081538 -0.25166,-2.16339 -0.59083,-3.190369 -0.44099,-1.335264 -1.03921,-2.623083 -1.73308,-3.846172 -0.26878,-0.47378 -0.58829,-1.081455 -1.12258,-1.187523 -2.67065,-0.530188 -3.64459,0.464624 -3.84036,2.995398 -0.2899,3.747373 0.0818,6.34516 1.6937,9.588832 0.57599,1.159055 1.16092,2.37834 2.10728,3.261273 1.07667,1.004506 2.41191,1.762337 3.80097,2.250982 0.70705,0.248724 1.69262,0.382389 2.24514,-0.124073 1.39006,-1.274189 2.93129,-2.869692 3.07229,-4.750107 0.22167,-2.956111 -1.6361,-7.268262 -4.47057,-8.897582 -0.92007,-0.528877 -4.00438,-2.163825 -5.57346,-1.063458 -0.59986,0.420665 -1.07865,1.073957 -1.29982,1.77243 -0.51748,1.634252 -0.86655,3.354916 -0.86655,5.06914 0,1.210673 0.32235,2.445663 0.86655,3.527132 1.37513,2.732735 2.52971,4.594532 5.4159,5.228664 0.58487,0.128503 1.25105,0.132392 1.79217,-0.124071 1.5389,-0.729367 2.22289,-2.517156 2.18605,-4.112033 -0.0308,-1.335354 -0.53029,-6.186606 -2.26483,-7.532819 -1.47041,-1.141225 -3.23475,-1.898115 -5.00232,-2.481397 -0.33251,-0.109726 -0.73528,0.225973 -0.90593,0.531726 -0.58143,1.041789 -1.01023,2.183364 -1.26043,3.349891 -0.22825,1.064154 -0.2402,2.176052 -0.15755,3.261267 0.11182,1.46831 0.60354,3.086253 1.83156,4.041132 0.33095,0.257336 0.88583,0.553074 1.22104,0.301313 1.63376,-1.227053 3.0413,-2.768852 4.25394,-4.413343 0.73226,-0.993031 0.98835,-2.261137 1.49676,-3.385338 0.4829,-1.067782 0.96908,-2.134289 1.47707,-3.190367 0.0194,-0.04036 0.98235,-1.804717 1.00439,-1.825605 0.0769,-0.07289 0.19725,0.114181 0.23634,0.212692 0.22823,0.575113 0.3447,1.189248 0.55144,1.77243 0.92523,2.609932 2.17654,6.456378 3.72219,9.003932 0.45817,0.755147 1.32325,2.541775 2.63903,2.516849 1.88779,-0.03577 1.49242,-1.904934 1.47705,-3.63348 -0.0179,-2.014673 -0.86494,-4.526116 -1.61491,-6.363014 -0.11432,-0.280009 -0.19127,-0.733401 -0.49235,-0.76214 -0.3415,-0.0326 -0.75892,0.298474 -0.80746,0.638068 -0.21209,1.483569 1.47686,5.557475 1.79216,6.309844 0.18146,0.432985 0.42275,0.849156 0.72869,1.205254 0.57656,0.671091 1.50594,0.791752 2.32391,0.354486 0.47663,-0.254794 0.86873,-0.729388 1.04379,-1.240706 0.88281,-2.578396 1.40846,-5.26565 2.08758,-7.905021 0.496,-1.927709 0.93356,-3.870242 1.43769,-5.795842 0.0608,-0.232348 0.1486,-0.458698 0.25601,-0.67352 0.0712,-0.142382 0.12514,-0.338304 0.27572,-0.389931 0.0895,-0.03069 0.10794,0.158372 0.13786,0.248137 0.0889,0.26677 0.16044,0.539784 0.21663,0.815314 0.2331,1.142955 0.29976,2.254145 0.76809,3.332169 0.37407,0.86105 0.79532,1.482571 1.87094,1.542009 1.0007,0.0553 2.23082,-1.768457 2.52086,-2.109187 0.42978,-0.504902 1.36761,-1.832792 1.93002,-2.321885 0.25573,-0.222385 0.55052,-0.654093 0.86655,-0.531726 0.44986,0.174186 0.57481,0.776393 0.82716,1.18753 0.12842,0.209243 0.36413,0.931043 0.63021,1.116626 0.3699,0.257997 0.64309,0.09618 0.84686,-0.248137 0.23873,-0.403409 0.4312,-0.835401 0.59081,-1.27615 0.13055,-0.360479 0.26969,-0.73329 0.27572,-1.116632 0.0139,-0.883152 0.0519,-1.799453 -0.21663,-2.640913 -0.12203,-0.382412 -0.52865,-0.632954 -0.88624,-0.815321 -1.075,-0.548233 -2.2446,-0.883144 -3.44648,-0.67352 -0.40632,0.07087 -0.81407,0.20381 -1.16196,0.425383 -0.73564,0.468538 -1.68,1.341952 -2.06789,2.197807 -0.24613,0.543047 -0.44739,1.114463 -0.55144,1.701533 -0.0691,0.389983 -0.18602,0.861873 0.0394,1.18753 0.57206,0.826453 1.30955,1.600919 2.20575,2.056012 0.40005,0.203149 0.9554,-0.0037 1.31952,-0.265866 1.49933,-1.079486 1.68912,-2.014651 1.65431,-3.722093 -0.0196,-0.960586 -0.42974,-2.997949 -1.20136,-3.686649 -1.13407,-1.012209 -2.47383,-1.804446 -3.86005,-2.428228 -0.8546,-0.384559 -1.82196,-0.489782 -2.75719,-0.549455 -2.47691,-0.158037 -3.94964,0.641217 -6.20366,1.843328 -0.94948,0.506374 -1.83286,1.132693 -2.69811,1.772423 -1.45422,1.075183 -2.82529,2.258696 -4.25394,3.367615 -0.86261,0.669551 -1.74622,1.311594 -2.61933,1.967392"
       id="path54" />
    <path
       style="fill:none;stroke:#ffb3b3;stroke-width:0.264583px;stroke-linecap:butt;stroke-linejoin:miter;stroke-opacity:1"
       d="m 79.167944,42.948672 c 0.714251,0.864661 1.428501,1.729319 2.337644,3.102667 0.909143,1.373347 2.013179,3.255385 3.556099,5.858019 1.54292,2.602633 3.524725,5.925867 5.567744,9.251858 2.043018,3.325991 4.14725,6.65474 6.574796,10.560855 2.427546,3.906115 5.178403,8.389596 7.818693,12.622863 2.64028,4.233268 5.16999,8.216323 7.88982,12.170663 2.71983,3.954343 5.62979,7.879973 7.6488,10.356683 2.01902,2.47671 3.14708,3.50451 4.06207,4.31922 0.91498,0.81471 1.61689,1.41635 2.16838,1.88011 0.5515,0.46375 0.95259,0.78964 1.56675,1.32861 0.61417,0.53896 1.44141,1.291 2.00545,1.81743 0.56403,0.52642 0.86485,0.82724 1.24087,1.17819 0.37602,0.35096 0.82725,0.75205 1.32861,1.17821 0.50136,0.42616 1.05286,0.87738 1.59182,1.24087 0.53896,0.36349 1.06539,0.63924 1.60436,0.78965 0.53897,0.15041 1.09047,0.17547 1.51663,0.17547 0.42615,0 0.72697,-0.0251 1.12806,-0.0376 0.40109,-0.0125 0.90244,-0.0125 1.27846,-0.0376 0.37602,-0.0251 0.62671,-0.0752 0.9526,-0.18801 0.32588,-0.11281 0.72697,-0.28828 1.11553,-0.78965 0.38855,-0.50136 0.76458,-1.32861 1.27847,-2.50681 0.5139,-1.1782 1.16566,-2.70735 2.31692,-5.10743 1.15127,-2.40008 2.80202,-5.67108 4.02467,-8.03457 1.22266,-2.36349 2.0172,-3.81945 2.88079,-5.635225 0.8636,-1.815773 1.79626,-3.991345 2.46386,-5.720484 0.6676,-1.729139 1.07015,-3.011844 1.63491,-5.194883 0.56477,-2.183039 1.29174,-5.266412 1.84324,-8.048968 0.5515,-2.782555 0.92753,-5.264294 1.17821,-7.407615 0.25068,-2.143321 0.37602,-3.948224 0.37602,-5.452309 0,-1.504084 -0.12534,-2.707351 -0.27575,-3.622336 -0.15041,-0.914986 -0.32588,-1.541692 -0.88992,-2.644687 -0.56403,-1.102996 -1.51662,-2.682285 -3.07085,-3.772746 -1.55422,-1.09046 -3.71007,-1.692091 -5.30189,-1.992907 -1.59182,-0.300815 -2.61961,-0.300815 -4.84216,0.04296 -2.22254,0.343773 -5.63984,1.031318 -10.07082,2.531941 -4.43097,1.500622 -9.87562,3.814322 -13.76552,5.650344 -3.8899,1.836022 -6.22505,3.194365 -9.00598,5.0792 -2.78094,1.884834 -6.00767,4.296165 -8.47335,6.742701 -2.46568,2.446536 -4.17031,4.92828 -4.849862,9.267166 -0.679553,4.338886 -0.334031,10.534917 1.030872,15.423373 1.3649,4.888457 3.74918,8.469337 8.1168,10.015137 4.36761,1.5458 10.71855,1.05653 17.59428,-3.89982 6.87573,-4.95635 14.27625,-14.379782 19.67879,-24.123194 5.40255,-9.743413 8.80713,-19.806813 10.73719,-26.257612 1.93007,-6.450799 2.38561,-9.288995 2.50778,-12.927773 0.12216,-3.638778 -0.0891,-8.078137 -0.74627,-11.313344 -0.65721,-3.235206 -1.76043,-5.26626 -2.96381,-6.582605 -1.20338,-1.316344 -2.50692,-1.917979 -4.9498,-2.04831 -2.44288,-0.130332 -6.02511,0.21064 -9.75723,1.092204 -3.73212,0.881564 -7.61414,2.303721 -10.74434,3.780894 -3.1302,1.477173 -5.50857,3.009358 -7.59274,4.677672 -2.08416,1.668314 -3.87413,3.472763 -6.39861,7.071136 -2.52449,3.598373 -5.78349,8.99067 -8.28143,14.067368 -2.49794,5.076697 -4.23482,9.837792 -5.39416,13.634598 -1.15933,3.796806 -1.74113,6.629326 -2.10723,8.684819 -0.366094,2.055493 -0.516497,3.333965 -0.604234,4.22388 -0.08774,0.889915 -0.112807,1.391272 -0.137877,1.892631"
       id="path1"
       inkscape:path-effect="#path-effect5"
       inkscape:original-d="m 79.167944,42.948672 c 0.714251,0.864661 1.428501,1.729319 2.142752,2.59398 1.104035,1.882034 2.208072,3.764071 3.312107,5.646108 1.981803,3.323232 3.963609,6.646465 5.945412,9.969695 2.104234,3.328752 4.208465,6.657502 6.312699,9.986251 2.750857,4.483481 5.501716,8.966962 8.252576,13.45044 2.52971,3.983056 5.05942,7.966112 7.58913,11.949165 2.90995,3.925629 5.81991,7.851259 8.72987,11.776889 1.12806,1.0278 2.25613,2.05559 3.3842,3.08338 0.7019,0.60163 1.40381,1.20327 2.10571,1.8049 0.40109,0.32588 0.80218,0.65177 1.20327,0.97766 0.82724,0.75204 1.65449,1.50407 2.48173,2.25612 0.30082,0.30081 0.60164,0.60163 0.90246,0.90245 0.45122,0.40109 0.90245,0.80218 1.35368,1.20327 0.55149,0.45123 1.10299,0.90245 1.65448,1.35368 0.52643,0.27575 1.05286,0.5515 1.5793,0.82725 0.5515,0.0251 1.103,0.0501 1.6545,0.0752 0.30081,-0.0251 0.60163,-0.0501 0.90245,-0.0752 0.50136,0 1.00271,0 1.50407,0 0.25069,-0.0501 0.50137,-0.10027 0.75205,-0.15041 0.40109,-0.17548 0.80218,-0.35095 1.20327,-0.52643 0.37602,-0.82725 0.75205,-1.6545 1.12807,-2.48175 0.65177,-1.52915 1.30353,-3.0583 1.9553,-4.58746 1.65076,-3.271 3.30151,-6.542 4.95227,-9.81301 0.79455,-1.45597 1.58909,-2.91193 2.38363,-4.367902 0.93266,-2.175573 1.86531,-4.351147 2.79796,-6.526723 0.40255,-1.282703 0.8051,-2.565408 1.20765,-3.84811 0.72698,-3.083375 1.45395,-6.16675 2.18093,-9.250122 0.37602,-2.481739 0.75204,-4.963478 1.12807,-7.445216 0.12534,-1.804903 0.25068,-3.609806 0.37602,-5.414709 -0.12534,-1.203266 -0.25068,-2.406533 -0.37602,-3.6098 -0.17548,-0.626703 -0.35096,-1.253408 -0.52643,-1.880111 -0.95259,-1.57929 -1.90518,-3.15858 -2.85777,-4.737867 -2.15586,-0.601631 -4.31171,-1.203264 -6.46756,-1.804895 -1.02779,0 -2.05558,0 -3.08337,0 -3.4173,0.687546 -6.8346,1.375093 -10.25191,2.062639 -5.44464,2.313699 -10.88929,4.627398 -16.33394,6.941098 -2.33515,1.358341 -4.6703,2.716683 -7.00544,4.075025 -3.22673,2.41133 -6.45346,4.822661 -9.68019,7.233991 -1.70463,2.481741 -3.40926,4.963485 -5.113887,7.445227 0.345522,6.196031 0.691044,12.392062 1.036566,18.588095 2.384281,3.58088 4.768561,7.16176 7.152851,10.74264 6.35094,-0.48927 12.70188,-0.97855 19.05283,-1.46783 7.40051,-9.42342 14.80103,-18.84685 22.20154,-28.270276 3.40458,-10.063401 6.80916,-20.126801 10.21374,-30.190202 0.45555,-2.838196 0.9111,-5.676392 1.36664,-8.51459 -0.21122,-4.439359 -0.42243,-8.878718 -0.63365,-13.31808 -1.10321,-2.031053 -2.20643,-4.062104 -3.30964,-6.093156 -1.30355,-0.601636 -2.60709,-1.203272 -3.91063,-1.804907 -3.58222,0.340971 -7.16445,0.681943 -10.74667,1.022914 -3.88202,1.422157 -7.76404,2.844314 -11.64606,4.266471 -2.37838,1.532186 -4.75675,3.064373 -7.13512,4.596559 -1.78996,1.804445 -3.57993,3.60889 -5.36989,5.413335 -3.25901,5.392301 -6.51801,10.784599 -9.77701,16.176897 -1.73688,4.761098 -3.47376,9.522193 -5.21064,14.283291 -0.58179,2.832515 -1.16359,5.665033 -1.74538,8.497548 -0.150401,1.278472 -0.300806,2.556944 -0.451211,3.835416 -0.02506,0.501359 -0.05014,1.002715 -0.07521,1.504074" />
    <path
       style="fill:none;stroke:#000000;stroke-width:0.264583px;stroke-linecap:butt;stroke-linejoin:miter;stroke-opacity:1"
       d="m 175.20611,18.186335 c 0,0 -21.62133,61.685792 -21.62133,61.685792"
       id="path5"
       inkscape:path-effect="#path-effect20"
       inkscape:original-d="M 175.20611,18.186335 153.58478,79.872127" />
    <path
       style="fill:none;stroke:#000000;stroke-width:0.264583px;stroke-linecap:butt;stroke-linejoin:miter;stroke-opacity:1"
       d="m 189.33057,60.64456 c 0,0 -50.83761,31.758774 -50.83761,31.758774"
       id="path20"
       inkscape:path-effect="#path-effect21"
       inkscape:original-d="M 189.33057,60.64456 138.49296,92.403334" />
    <path
       style="fill:none;stroke:#ffffff;stroke-width:0.264583px;stroke-linecap:butt;stroke-linejoin:miter;stroke-opacity:1"
       d="m 173.58653,49.470471 c 0,0 -151.547944,-16.390001 -151.547944,-16.390001"
       id="path21"
       inkscape:path-effect="#path-effect22"
       inkscape:original-d="M 173.58653,49.470471 22.038586,33.08047" />
  </g>
</svg>
