# Blender 4.1.1
# www.blender.org
mtllib boomout.mtl
o Icosphère
v 0.276388 0.447220 0.850649
v -0.723607 0.447220 0.525725
v -0.723607 0.447220 -0.525725
v 0.276388 0.447220 -0.850649
v 0.894426 0.447216 0.000000
v 0.000000 1.000000 0.000000
v 0.951058 0.000000 0.309013
v 0.951058 0.000000 -0.309013
v 0.000000 0.000000 1.000000
v 0.587786 0.000000 0.809017
v -0.951058 0.000000 0.309013
v -0.587786 0.000000 0.809017
v -0.587786 0.000000 -0.809017
v -0.951058 0.000000 -0.309013
v 0.587786 0.000000 -0.809017
v 0.000000 0.000000 -1.000000
v 0.688189 0.525736 0.499997
v -0.262869 0.525738 0.809012
v -0.850648 0.525736 0.000000
v -0.262869 0.525738 -0.809012
v 0.688189 0.525736 -0.499997
v 0.162456 0.850654 0.499995
v 0.525730 0.850652 0.000000
v -0.425323 0.850654 0.309011
v -0.425323 0.850654 -0.309011
v 0.162456 0.850654 -0.499995
vn 0.4089 0.6617 0.6284
vn -0.4713 0.6617 0.5831
vn -0.7002 0.6617 -0.2680
vn 0.0385 0.6617 -0.7488
vn 0.7240 0.6617 -0.1947
vn 0.2680 0.9435 -0.1947
vn 0.4911 0.7947 -0.3568
vn 0.4089 0.6617 -0.6284
vn -0.1024 0.9435 -0.3151
vn -0.1876 0.7947 -0.5773
vn -0.4713 0.6617 -0.5831
vn -0.3313 0.9435 -0.0000
vn -0.6071 0.7947 -0.0000
vn -0.7002 0.6617 0.2680
vn -0.1024 0.9435 0.3151
vn -0.1876 0.7947 0.5773
vn 0.0385 0.6617 0.7488
vn 0.2680 0.9435 0.1947
vn 0.4911 0.7947 0.3568
vn 0.7240 0.6617 0.1947
vn 0.8897 0.3304 -0.3151
vn 0.7947 0.1876 -0.5773
vn 0.5746 0.3304 -0.7488
vn -0.0247 0.3304 -0.9435
vn -0.3035 0.1876 -0.9342
vn -0.5346 0.3304 -0.7779
vn -0.9050 0.3304 -0.2680
vn -0.9822 0.1876 -0.0000
vn -0.9050 0.3304 0.2680
vn -0.5346 0.3304 0.7779
vn -0.3035 0.1876 0.9342
vn -0.0247 0.3304 0.9435
vn 0.5746 0.3304 0.7488
vn 0.7947 0.1876 0.5773
vn 0.8897 0.3304 0.3151
vn 0.3066 0.1256 -0.9435
vn -0.8026 0.1256 -0.5831
vn -0.8026 0.1256 0.5831
vn 0.3066 0.1256 0.9435
vn 0.9921 0.1256 -0.0000
vt 0.195294 0.424549
vt 0.295452 0.424549
vt 0.228918 0.978643
vt -0.005023 0.424549
vt 0.095136 0.424549
vt 0.006169 0.705929
vt 0.796242 0.424549
vt 0.896400 0.424549
vt 0.792211 0.799677
vt 0.595926 0.424549
vt 0.696084 0.424549
vt 0.606316 0.715897
vt 0.395610 0.424549
vt 0.495768 0.424549
vt 0.390667 0.835339
vt 0.587687 0.714941
vt 0.584678 0.998721
vt 0.776492 0.793539
vt 0.606256 0.994258
vt 0.992142 0.972089
vt 0.642894 0.992559
vt 0.996558 0.424549
vt 0.215905 0.963061
vt 0.007316 0.998621
vt 0.377364 0.829751
vt 0.564778 0.989262
vt 0.431996 0.004874
vt 0.478716 0.408030
vt 0.385275 0.408030
vt 0.525437 0.004874
vt 0.572157 0.408030
vt 0.618878 0.004874
vt 0.665598 0.408030
vt 0.712319 0.004874
vt 0.759039 0.408030
vt 0.805760 0.004874
vt 0.852481 0.408030
vt 0.899201 0.004874
vt 0.945922 0.408030
vt 0.058231 0.004874
vt 0.104951 0.408030
vt 0.011510 0.408030
vt 0.151672 0.004874
vt 0.198393 0.408030
vt 0.245113 0.004874
vt 0.291834 0.408030
vt 0.338555 0.004874
vt 0.992642 0.004874
s 0
usemtl Matériau
f 1/1/1 17/2/1 22/3/1
f 2/4/2 18/5/2 24/6/2
f 3/7/3 19/8/3 25/9/3
f 4/10/4 20/11/4 26/12/4
f 5/13/5 21/14/5 23/15/5
f 23/15/6 26/16/6 6/17/6
f 23/15/7 21/14/7 26/16/7
f 21/14/8 4/10/8 26/16/8
f 26/12/9 25/18/9 6/19/9
f 26/12/10 20/11/10 25/18/10
f 20/11/11 3/7/11 25/18/11
f 25/9/12 24/20/12 6/21/12
f 25/9/13 19/8/13 24/20/13
f 19/8/14 2/22/14 24/20/14
f 24/6/15 22/23/15 6/24/15
f 24/6/16 18/5/16 22/23/16
f 18/5/17 1/1/17 22/23/17
f 22/3/18 23/25/18 6/26/18
f 22/3/19 17/2/19 23/25/19
f 17/2/20 5/13/20 23/25/20
f 8/27/21 21/28/21 5/29/21
f 8/27/22 15/30/22 21/28/22
f 15/30/23 4/31/23 21/28/23
f 16/32/24 20/33/24 4/31/24
f 16/32/25 13/34/25 20/33/25
f 13/34/26 3/35/26 20/33/26
f 14/36/27 19/37/27 3/35/27
f 14/36/28 11/38/28 19/37/28
f 11/38/29 2/39/29 19/37/29
f 12/40/30 18/41/30 2/42/30
f 12/40/31 9/43/31 18/41/31
f 9/43/32 1/44/32 18/41/32
f 10/45/33 17/46/33 1/44/33
f 10/45/34 7/47/34 17/46/34
f 7/47/35 5/29/35 17/46/35
f 15/30/36 16/32/36 4/31/36
f 13/34/37 14/36/37 3/35/37
f 11/38/38 12/48/38 2/39/38
f 9/43/39 10/45/39 1/44/39
f 7/47/40 8/27/40 5/29/40
