# Blender 4.1.1
# www.blender.org
mtllib proj2.mtl
o Cylindre
v -3.007115 0.000000 -0.757908
v 1.268459 0.000000 -0.423856
v -3.007115 -0.378954 -0.656367
v 1.268459 -0.211928 -0.367070
v -3.007115 -0.656367 -0.378954
v 1.268459 -0.367070 -0.211928
v -3.007115 -0.757908 0.000000
v 1.268459 -0.423856 -0.000000
v -3.007115 -0.656368 0.378954
v 1.268459 -0.367070 0.211928
v -3.007115 -0.378954 0.656368
v 1.268460 -0.211928 0.367069
v -3.007115 -0.000000 0.757908
v 1.268460 -0.000000 0.423855
v -3.007115 0.378954 0.656368
v 1.268460 0.211928 0.367070
v -3.007115 0.656368 0.378954
v 1.268459 0.367070 0.211928
v -3.007115 0.757908 0.000000
v 1.268459 0.423855 -0.000000
v -3.007115 0.656368 -0.378954
v 1.268459 0.367070 -0.211928
v -3.007115 0.378954 -0.656367
v 1.268459 0.211928 -0.367070
v -4.848886 0.000000 -0.472955
v -4.848886 -0.236478 -0.409591
v -4.848886 -0.409592 -0.236477
v -4.848886 -0.472956 0.000001
v -4.848886 -0.409592 0.236480
v -4.848886 -0.236478 0.409594
v -4.848886 0.000000 0.472958
v -4.848886 0.236479 0.409594
v -4.848886 0.409593 0.236480
v -4.848886 0.472957 0.000001
v -4.848886 0.409593 -0.236477
v -4.848886 0.236479 -0.409591
v -4.552910 0.000000 -0.400589
v -5.354089 0.000000 -0.083804
v -4.552910 0.000000 0.400589
v -5.354089 0.000000 0.083804
v -5.354089 0.083804 0.000000
v -4.552910 0.400589 0.000000
v -5.354089 -0.083804 0.000000
v -4.552910 -0.400589 0.000000
vn 0.0753 -0.2581 -0.9632
vn 0.0753 -0.7051 -0.7051
vn 0.0753 -0.9632 -0.2581
vn 0.0753 -0.9632 0.2581
vn 0.0753 -0.7051 0.7051
vn 0.0753 -0.2581 0.9632
vn 0.0753 0.2581 0.9632
vn 0.0753 0.7051 0.7051
vn 0.0753 0.9632 0.2581
vn 0.0753 0.9632 -0.2581
vn 0.0753 0.7051 -0.7051
vn 0.0753 0.2581 -0.9632
vn -0.1478 0.6993 0.6993
vn -0.1478 0.2560 0.9553
vn -0.1478 -0.2560 0.9553
vn -0.1478 -0.6993 0.6993
vn -0.1478 -0.9553 0.2560
vn -0.1478 0.2560 -0.9553
vn -0.1478 -0.2560 -0.9553
vn -0.1478 -0.9553 -0.2560
vn -0.1478 0.6993 -0.6993
vn -0.1478 -0.6993 -0.6993
vn -0.1478 0.9553 -0.2560
vn -0.1478 0.9553 0.2560
vn -0.0000 1.0000 -0.0000
vn -0.0000 -0.0000 -1.0000
vt 0.612931 0.999410
vt 0.009349 0.997775
vt 0.009943 0.923591
vt 0.613998 0.923592
vt 0.009945 0.839788
vt 0.614001 0.839789
vt 0.009947 0.755985
vt 0.614003 0.755986
vt 0.009949 0.672182
vt 0.614005 0.672183
vt 0.009951 0.588379
vt 0.614007 0.588380
vt 0.009953 0.504576
vt 0.614009 0.504577
vt 0.009956 0.420773
vt 0.614011 0.420774
vt 0.009958 0.336970
vt 0.614014 0.336971
vt 0.009960 0.253167
vt 0.614016 0.253168
vt 0.009962 0.169364
vt 0.614018 0.169365
vt 0.009964 0.085561
vt 0.614020 0.085562
vt 0.009967 0.001758
vt 0.614022 0.001759
vt 0.886579 0.331012
vt 0.886632 0.419239
vt 0.887608 0.506948
vt 0.887555 0.588381
vt 0.887768 0.671577
vt 0.887019 0.756246
vt 0.888944 0.000890
vt 0.887218 0.083838
vt 0.887162 0.926781
vt 0.888680 1.000129
vt 0.888498 0.839799
vt 0.887835 0.166740
vt 0.887770 0.249508
vt 0.900351 0.467099
vt 0.900021 0.015440
vt 0.995327 0.015049
vt 0.995657 0.466708
vt 0.902350 0.965520
vt 0.904917 0.505570
vt 0.995214 0.508840
vt 0.992646 0.968790
s 0
usemtl Matériau
f 1/1/1 2/2/1 4/3/1 3/4/1
f 3/4/2 4/3/2 6/5/2 5/6/2
f 5/6/3 6/5/3 8/7/3 7/8/3
f 7/8/4 8/7/4 10/9/4 9/10/4
f 9/10/5 10/9/5 12/11/5 11/12/5
f 11/12/6 12/11/6 14/13/6 13/14/6
f 13/14/7 14/13/7 16/15/7 15/16/7
f 15/16/8 16/15/8 18/17/8 17/18/8
f 17/18/9 18/17/9 20/19/9 19/20/9
f 19/20/10 20/19/10 22/21/10 21/22/10
f 21/22/11 22/21/11 24/23/11 23/24/11
f 23/24/12 24/23/12 2/25/12 1/26/12
f 15/16/13 17/18/13 33/27/13 32/28/13
f 13/14/14 15/16/14 32/28/14 31/29/14
f 11/12/15 13/14/15 31/29/15 30/30/15
f 9/10/16 11/12/16 30/30/16 29/31/16
f 7/8/17 9/10/17 29/31/17 28/32/17
f 23/24/18 1/26/18 25/33/18 36/34/18
f 1/1/19 3/4/19 26/35/19 25/36/19
f 5/6/20 7/8/20 28/32/20 27/37/20
f 21/22/21 23/24/21 36/34/21 35/38/21
f 3/4/22 5/6/22 27/37/22 26/35/22
f 19/20/23 21/22/23 35/38/23 34/39/23
f 17/18/24 19/20/24 34/39/24 33/27/24
f 40/40/25 39/41/25 37/42/25 38/43/25
f 41/44/26 42/45/26 44/46/26 43/47/26
