# Blender 4.1.1
# www.blender.org
mtllib proj1.mtl
o Cylindre.001
v -4.365125 -0.000001 -1.000000
v 2.993337 0.000001 -0.355129
v -4.365124 -0.500001 -0.866025
v 2.993337 -0.177564 -0.307551
v -4.365124 -0.866026 -0.499999
v 2.993337 -0.307550 -0.177565
v -4.365124 -1.000001 0.000000
v 2.993337 -0.355128 -0.000000
v -4.365124 -0.866026 0.500000
v 2.993337 -0.307550 0.177564
v -4.365124 -0.500001 0.866026
v 2.993337 -0.177564 0.307550
v -4.365124 -0.000001 1.000000
v 2.993337 0.000001 0.355128
v -4.365124 0.499999 0.866026
v 2.993337 0.177565 0.307550
v -4.365124 0.866025 0.500000
v 2.993337 0.307551 0.177564
v -4.365125 0.999999 0.000000
v 2.993337 0.355129 -0.000000
v -4.365125 0.866025 -0.499999
v 2.993337 0.307551 -0.177565
v -4.365125 0.499999 -0.866025
v 2.993337 0.177565 -0.307551
vn 0.0843 -0.2579 -0.9625
vn 0.0843 -0.7046 -0.7046
vn 0.0843 -0.9625 -0.2579
vn 0.0843 -0.9625 0.2579
vn 0.0843 -0.7046 0.7046
vn 0.0843 -0.2579 0.9625
vn 0.0843 0.2579 0.9625
vn 0.0843 0.7046 0.7046
vn 0.0843 0.9625 0.2579
vn 0.0843 0.9625 -0.2579
vn 0.0843 0.7046 -0.7046
vn 0.0843 0.2579 -0.9625
vt 1.000000 0.000461
vt 1.000000 1.000000
vt 0.916667 1.000000
vt 0.916667 0.000461
vt 0.833333 1.000000
vt 0.833333 0.000461
vt 0.750000 1.000000
vt 0.750000 0.000461
vt 0.666667 1.000000
vt 0.666667 0.000461
vt 0.583333 1.000000
vt 0.583333 0.000461
vt 0.500000 1.000000
vt 0.500000 0.000461
vt 0.416667 1.000000
vt 0.416667 0.000461
vt 0.333333 1.000000
vt 0.333333 0.000461
vt 0.250000 1.000000
vt 0.250000 0.000461
vt 0.166667 1.000000
vt 0.166667 0.000461
vt 0.083333 1.000000
vt 0.083333 0.000461
vt 0.000000 1.000000
vt 0.000000 0.000461
s 0
usemtl Matériau.001
f 1/1/1 2/2/1 4/3/1 3/4/1
f 3/4/2 4/3/2 6/5/2 5/6/2
f 5/6/3 6/5/3 8/7/3 7/8/3
f 7/8/4 8/7/4 10/9/4 9/10/4
f 9/10/5 10/9/5 12/11/5 11/12/5
f 11/12/6 12/11/6 14/13/6 13/14/6
f 13/14/7 14/13/7 16/15/7 15/16/7
f 15/16/8 16/15/8 18/17/8 17/18/8
f 17/18/9 18/17/9 20/19/9 19/20/9
f 19/20/10 20/19/10 22/21/10 21/22/10
f 21/22/11 22/21/11 24/23/11 23/24/11
f 23/24/12 24/23/12 2/25/12 1/26/12
